<svg xmlns="http://www.w3.org/2000/svg" viewBox="0 0 140 140"><style>.cls-1,.cls-5{fill:none}.cls-2,.cls-3{fill:#fff}.cls-2,.cls-5{stroke:#4f4f4f;stroke-linecap:round;stroke-linejoin:round;stroke-width:2px}.cls-4{fill:#f5c6bf}.cls-6{fill:#4f4f4f}</style><circle cx="70" cy="70" r="70" class="cls-1"/><path d="M34.2 77A64 64 0 0147 92.9c3.2 5 0 7.8-2.4 9.9-2-6.6-7.4-14.9-13.4-22.5A2.3 2.3 0 0134 77z" class="cls-2"/><path d="M87.7 33.4C92 30 99 30 102.8 34.4c12.2 9.3 7.6 20.9-2 19.7 1.3 18.1 1.4 34.4 1.5 51.7a5.2 5.2 0 01-4.5 5.2 188.7 188.7 0 01-24.2 1.7 188.7 188.7 0 01-24.2-1.7 5.2 5.2 0 01-4.6-5.2c.1-17.3-.1-33.6 1.1-51.7-15.7.5-7.7-17.1 0-20.8a10.6 10.6 0 0113.6.1 54.2 54.2 0 0128.2 0z" class="cls-3"/><path d="M109.4 42.3C108.5 39.7 98.9 31 94.9 31c-3.7 0-5.4 4-8.3 2.1l.7.2a76.3 76.3 0 00-27.6-.2h-.3a12.8 12.8 0 00-7-2.3c-6.7 0-14.8 10.5-15.2 13.2-1 7 4 12.2 8.3 9.8h.3c-1.3 19.6-2 38.2-2 56.6" class="cls-1"/><path d="M45.2 58.6l.5-5.4c3-1.5 4.7-5.6 5.8-10.2a1.2 1.2 0 011.4-.8 1.3 1.3 0 011.1 1.2c0 .4.5 9.9-6.6 16.2a1.3 1.3 0 01-.8.4 1.3 1.3 0 01-.7-.2 1.3 1.3 0 01-.7-1.2zm56.8 0l-.5-5.4c-3-1.5-4.7-5.6-5.8-10.2a1.2 1.2 0 00-1.5-.8 1.3 1.3 0 00-1 1.2c0 .4-.5 9.9 6.6 16.2a1.3 1.3 0 00.7.4 1.3 1.3 0 00.7-.2 1.3 1.3 0 00.7-1.2z" class="cls-4"/><path d="M101.4 54.2a929 929 0 012 51.6 5.3 5.3 0 01-4.7 5.2 193.9 193.9 0 01-25.1 1.8 193.9 193.9 0 01-25.1-1.8 5.3 5.3 0 01-4.6-5.2c0-17 .7-33.7 1.9-51.6" class="cls-5"/><path d="M57.2 99l4.3 13.1a3.6 3.6 0 007-1.5l-1-9m20.5 0l-3.4 10.5a3.6 3.6 0 01-7-1.5l.7-5.6" class="cls-2"/><path d="M52.5 43.1C51 47.8 47.8 56 42.7 54.4a8.2 8.2 0 01-5.6-9.9c.6-2.7 7.7-12.3 13.2-13.3s8 2.2 8 2.2a62.3 62.3 0 0130.5 0s2.5-3.2 8.1-2.2 12.6 10.6 13.2 13.3a8.2 8.2 0 01-5.6 9.9c-5.2 1.6-8.4-6.6-9.8-11.3" class="cls-5"/><rect width="2.5" height="3.8" x="85" y="48" class="cls-6" rx="1.2" ry="1.2"/><rect width="2.5" height="3.8" x="59.7" y="48" class="cls-6" rx="1.2" ry="1.2" transform="rotate(180 61 49.9)"/><path d="M62 43.7a6.7 6.7 0 00-5.7 2.7m28.9-2.7a6.7 6.7 0 015.6 2.7" class="cls-2"/><path d="M84.2 53c-1.2 0-2-.7-3.2-2-1.6-1.6-3.6-3.6-7.5-3.6s-5.8 2-7.5 3.6c-1.2 1.2-2 2-3.1 2-4.9 0-9.1 5-9.1 9 0 4.6 5.2 8.6 7.5 10.2 4.2 2.8 9 4.7 12.2 4.7s8-1.9 12.3-4.7c2.2-1.6 7.5-5.6 7.5-10.1 0-4.1-4.2-9.1-9.1-9.1z" class="cls-4"/><path d="M79.8 60.4l-.3 8.4a6.2 6.2 0 01-6 5 6.2 6.2 0 01-6-5l-.3-8.4" class="cls-3"/><path d="M68.3 64.2a7 7 0 003.6-1 3 3 0 013.2 0 7 7 0 003.6 1h1v-3.8h-1a6 6 0 01-5.2-2.5 6 6 0 01-5.2 2.5h-1l.2 3.8z" class="cls-4"/><path d="M79.8 60.4l-.3 8.4a6.2 6.2 0 01-6 5 6.2 6.2 0 01-6-5l-.3-8.4" class="cls-5"/><path fill="#4f4f4f" stroke="#4f4f4f" stroke-linecap="round" stroke-linejoin="round" stroke-width="2" d="M70.7 53a17 17 0 015.6 0 .8.8 0 01.6 1.3 4 4 0 01-6.7 0 .8.8 0 01.5-1.3z"/><path d="M73.5 57.9a6.6 6.6 0 0010.5 0m-10.5 0a6.6 6.6 0 01-10.4 0" class="cls-5"/><path d="M73.5 59.1v7.3" class="cls-2"/></svg>
